<svg preserveAspectRatio="none" width="100%" height="100%" overflow="visible" style="display: block;" viewBox="0 0 18 11" fill="none" xmlns="http://www.w3.org/2000/svg">
<g id="ios-signal">
<path id="Vector" fill-rule="evenodd" clip-rule="evenodd" d="M17.28 3.04281C17.28 2.69459 16.8502 2.4123 16.32 2.4123H15.36C14.8298 2.4123 14.4 2.69459 14.4 3.04281V8.50721C14.4 8.8554 14.8298 9.1377 15.36 9.1377H16.32C16.8502 9.1377 17.28 8.8554 17.28 8.50721V3.04281ZM10.5893 3.75738H11.5493C12.0795 3.75738 12.5093 4.04645 12.5093 4.40302V8.49208C12.5093 8.84864 12.0795 9.1377 11.5493 9.1377H10.5893C10.0591 9.1377 9.62928 8.84864 9.62928 8.49208V4.40302C9.62928 4.04645 10.0591 3.75738 10.5893 3.75738ZM6.6907 5.21455H5.73071C5.20051 5.21455 4.7707 5.50727 4.7707 5.8684V8.48383C4.7707 8.84495 5.20051 9.1377 5.73071 9.1377H6.6907C7.2209 9.1377 7.6507 8.84495 7.6507 8.48383V5.8684C7.6507 5.50727 7.2209 5.21455 6.6907 5.21455ZM1.92 6.55962H0.960003C0.429807 6.55962 0 6.84819 0 7.20414V8.49318C0 8.84913 0.429807 9.1377 0.960003 9.1377H1.92C2.4502 9.1377 2.88 8.84913 2.88 8.49318V7.20414C2.88 6.84819 2.4502 6.55962 1.92 6.55962Z" fill="var(--fill-0, white)"/>
</g>
</svg>
