<svg preserveAspectRatio="none" width="100%" height="100%" overflow="visible" style="display: block;" viewBox="0 0 30 30" fill="none" xmlns="http://www.w3.org/2000/svg">
<g id="mel-icon-v2">
<path id="Vector (Stroke)" fill-rule="evenodd" clip-rule="evenodd" d="M16.7109 10.8323C19.2103 7.69945 23.8236 7.69945 26.323 10.8323C28.2502 13.2478 28.2502 16.7532 26.323 19.1687C23.8236 22.3016 19.2103 22.3016 16.7109 19.1687L11.3695 12.4737C9.86616 10.5893 7.10198 10.5893 5.59859 12.4737C4.43156 13.9365 4.43156 16.0646 5.59859 17.5274C7.10198 19.4118 9.86616 19.4118 11.3695 17.5274L13.2501 15.1702L13.6689 15.5043L11.7883 17.8615C10.0705 20.0147 6.89767 20.0147 5.17982 17.8615C3.85686 16.2032 3.85686 13.7978 5.17982 12.1396C6.89767 9.98635 10.0705 9.98635 11.7883 12.1396L17.1297 18.8346C19.4146 21.6987 23.6193 21.6987 25.9043 18.8346C27.6755 16.6146 27.6755 13.3865 25.9043 11.1664C23.6193 8.30237 19.4146 8.30237 17.1297 11.1664L15.4499 13.2719L15.0311 12.9378L16.7109 10.8323ZM3.678 10.8323C6.17742 7.69945 10.7907 7.69945 13.2901 10.8323L18.6315 17.5274C20.1349 19.4118 22.8991 19.4118 24.4025 17.5274C25.5695 16.0646 25.5695 13.9365 24.4025 12.4737C22.8991 10.5893 20.1349 10.5893 18.6315 12.4737L16.7509 14.8308L16.3322 14.4967L18.2127 12.1396C19.9306 9.98635 23.1034 9.98635 24.8212 12.1396C26.1442 13.7978 26.1442 16.2032 24.8212 17.8615C23.1034 20.0147 19.9306 20.0147 18.2127 17.8615L12.8714 11.1664C10.5864 8.30237 6.38173 8.30237 4.09677 11.1664C2.32558 13.3865 2.32558 16.6146 4.09677 18.8346C6.38173 21.6987 10.5864 21.6987 12.8714 18.8346L14.5512 16.7291L14.9699 17.0632L13.2901 19.1687C10.7907 22.3016 6.17742 22.3016 3.678 19.1687C1.75089 16.7532 1.75089 13.2478 3.678 10.8323Z" fill="url(#paint0_linear_0_268)"/>
</g>
<defs>
<linearGradient id="paint0_linear_0_268" x1="8.61659" y1="5.61532" x2="7.65478" y2="22.9121" gradientUnits="userSpaceOnUse">
<stop offset="0.155966" stop-color="#B6B8FF"/>
<stop offset="0.449" stop-color="#5A5FF2"/>
<stop offset="0.759086" stop-color="#F08068"/>
<stop offset="1" stop-color="#F0A468"/>
<stop offset="1" stop-color="#F0A468"/>
</linearGradient>
</defs>
</svg>
